<?xml version="1.0" encoding="UTF-8"?>
<svg xmlns="http://www.w3.org/2000/svg" version="1.1" width="300" height="300" viewBox="0 0 300 300"><rect x="0" y="0" width="300" height="300" fill="#ffffff"/><g transform="scale(8.108)"><g transform="translate(0,0)"><path fill-rule="evenodd" d="M9 0L9 1L10 1L10 2L8 2L8 3L9 3L9 4L10 4L10 5L9 5L9 6L8 6L8 8L4 8L4 9L3 9L3 8L0 8L0 12L1 12L1 13L0 13L0 14L2 14L2 15L0 15L0 17L2 17L2 19L1 19L1 18L0 18L0 19L1 19L1 20L0 20L0 23L1 23L1 22L2 22L2 25L3 25L3 23L4 23L4 26L2 26L2 27L1 27L1 26L0 26L0 27L1 27L1 28L0 28L0 29L1 29L1 28L2 28L2 27L3 27L3 29L4 29L4 27L7 27L7 28L5 28L5 29L7 29L7 28L8 28L8 27L11 27L11 28L12 28L12 29L10 29L10 31L9 31L9 29L8 29L8 33L9 33L9 34L8 34L8 37L11 37L11 36L12 36L12 37L13 37L13 36L12 36L12 35L10 35L10 34L12 34L12 32L14 32L14 34L13 34L13 35L14 35L14 34L15 34L15 33L16 33L16 34L17 34L17 33L18 33L18 35L15 35L15 36L17 36L17 37L18 37L18 36L19 36L19 37L20 37L20 35L19 35L19 33L18 33L18 31L19 31L19 32L21 32L21 33L20 33L20 34L23 34L23 33L22 33L22 32L23 32L23 29L24 29L24 31L25 31L25 32L24 32L24 33L25 33L25 34L24 34L24 35L21 35L21 37L22 37L22 36L23 36L23 37L27 37L27 36L28 36L28 37L29 37L29 34L30 34L30 33L32 33L32 35L30 35L30 37L31 37L31 36L32 36L32 37L33 37L33 36L34 36L34 35L33 35L33 34L34 34L34 32L33 32L33 31L35 31L35 33L37 33L37 32L36 32L36 31L37 31L37 29L36 29L36 30L33 30L33 27L31 27L31 26L32 26L32 25L31 25L31 24L32 24L32 23L31 23L31 24L30 24L30 25L29 25L29 24L28 24L28 23L27 23L27 22L26 22L26 23L25 23L25 24L24 24L24 23L23 23L23 22L22 22L22 21L23 21L23 20L24 20L24 22L25 22L25 21L26 21L26 19L27 19L27 18L26 18L26 17L27 17L27 16L26 16L26 15L27 15L27 12L30 12L30 14L31 14L31 16L30 16L30 15L29 15L29 16L30 16L30 18L31 18L31 20L30 20L30 22L32 22L32 20L33 20L33 19L37 19L37 16L36 16L36 15L37 15L37 12L36 12L36 11L37 11L37 10L35 10L35 8L34 8L34 10L32 10L32 9L31 9L31 8L29 8L29 6L28 6L28 3L29 3L29 1L28 1L28 0L25 0L25 2L28 2L28 3L26 3L26 5L24 5L24 4L23 4L23 3L24 3L24 0L22 0L22 1L20 1L20 0L19 0L19 1L17 1L17 0L16 0L16 1L14 1L14 0L12 0L12 1L10 1L10 0ZM13 1L13 2L14 2L14 1ZM22 1L22 2L21 2L21 4L20 4L20 5L21 5L21 4L22 4L22 3L23 3L23 1ZM11 2L11 3L12 3L12 4L11 4L11 5L10 5L10 6L9 6L9 7L10 7L10 6L11 6L11 8L12 8L12 10L9 10L9 11L8 11L8 10L7 10L7 9L4 9L4 11L3 11L3 10L2 10L2 9L1 9L1 10L2 10L2 11L3 11L3 13L4 13L4 14L3 14L3 15L2 15L2 16L3 16L3 15L4 15L4 16L5 16L5 17L6 17L6 18L4 18L4 20L3 20L3 19L2 19L2 20L3 20L3 21L2 21L2 22L3 22L3 21L4 21L4 22L7 22L7 23L6 23L6 24L7 24L7 25L5 25L5 26L7 26L7 27L8 27L8 26L9 26L9 25L11 25L11 24L12 24L12 26L11 26L11 27L12 27L12 28L13 28L13 29L14 29L14 30L13 30L13 31L14 31L14 30L15 30L15 31L16 31L16 32L17 32L17 30L16 30L16 29L17 29L17 26L18 26L18 25L17 25L17 26L16 26L16 25L15 25L15 26L14 26L14 24L12 24L12 23L9 23L9 22L10 22L10 21L9 21L9 20L10 20L10 19L12 19L12 20L11 20L11 21L12 21L12 20L13 20L13 21L14 21L14 22L13 22L13 23L14 23L14 22L15 22L15 23L16 23L16 24L17 24L17 22L16 22L16 21L17 21L17 20L15 20L15 19L20 19L20 18L22 18L22 17L20 17L20 16L21 16L21 15L20 15L20 13L19 13L19 12L18 12L18 13L17 13L17 12L16 12L16 13L15 13L15 11L18 11L18 10L19 10L19 11L20 11L20 8L21 8L21 7L22 7L22 6L21 6L21 7L20 7L20 6L19 6L19 7L18 7L18 5L17 5L17 4L18 4L18 2L17 2L17 3L16 3L16 2L15 2L15 3L16 3L16 4L15 4L15 5L14 5L14 4L13 4L13 3L12 3L12 2ZM13 5L13 6L12 6L12 8L14 8L14 10L13 10L13 11L14 11L14 10L16 10L16 9L17 9L17 10L18 10L18 7L17 7L17 6L16 6L16 8L15 8L15 6L14 6L14 5ZM13 6L13 7L14 7L14 6ZM23 6L23 7L24 7L24 6ZM25 6L25 7L26 7L26 6ZM27 6L27 8L28 8L28 6ZM19 7L19 8L20 8L20 7ZM9 8L9 9L10 9L10 8ZM22 8L22 10L21 10L21 11L24 11L24 8ZM26 9L26 10L27 10L27 11L26 11L26 12L27 12L27 11L28 11L28 9ZM29 9L29 11L30 11L30 12L31 12L31 11L32 11L32 14L33 14L33 16L32 16L32 18L35 18L35 14L36 14L36 12L35 12L35 10L34 10L34 11L32 11L32 10L30 10L30 9ZM6 10L6 11L7 11L7 10ZM10 11L10 13L11 13L11 14L10 14L10 15L9 15L9 16L8 16L8 14L9 14L9 13L7 13L7 12L6 12L6 13L7 13L7 14L5 14L5 16L6 16L6 17L7 17L7 16L8 16L8 17L10 17L10 18L12 18L12 16L14 16L14 18L13 18L13 19L14 19L14 18L15 18L15 14L14 14L14 13L13 13L13 12L12 12L12 11ZM4 12L4 13L5 13L5 12ZM11 12L11 13L12 13L12 12ZM16 13L16 15L17 15L17 16L16 16L16 17L17 17L17 18L18 18L18 16L19 16L19 15L17 15L17 13ZM22 13L22 14L23 14L23 15L22 15L22 16L23 16L23 19L22 19L22 20L23 20L23 19L24 19L24 16L23 16L23 15L24 15L24 13ZM25 13L25 14L26 14L26 13ZM28 13L28 14L29 14L29 13ZM34 13L34 14L35 14L35 13ZM13 14L13 15L14 15L14 14ZM6 15L6 16L7 16L7 15ZM11 15L11 16L12 16L12 15ZM33 16L33 17L34 17L34 16ZM28 17L28 19L29 19L29 17ZM6 18L6 19L5 19L5 21L7 21L7 20L6 20L6 19L7 19L7 18ZM35 20L35 21L34 21L34 22L33 22L33 23L35 23L35 24L36 24L36 25L35 25L35 26L36 26L36 28L37 28L37 20ZM18 21L18 22L19 22L19 23L18 23L18 24L19 24L19 27L18 27L18 28L19 28L19 27L20 27L20 28L21 28L21 27L25 27L25 26L27 26L27 27L26 27L26 29L25 29L25 31L26 31L26 32L27 32L27 33L26 33L26 34L27 34L27 35L26 35L26 36L27 36L27 35L28 35L28 34L27 34L27 33L28 33L28 31L26 31L26 30L27 30L27 29L28 29L28 25L27 25L27 23L26 23L26 25L25 25L25 26L24 26L24 25L23 25L23 23L22 23L22 25L23 25L23 26L21 26L21 25L20 25L20 24L21 24L21 23L20 23L20 22L21 22L21 21ZM28 21L28 22L29 22L29 21ZM0 24L0 25L1 25L1 24ZM8 24L8 25L7 25L7 26L8 26L8 25L9 25L9 24ZM33 25L33 26L34 26L34 25ZM13 26L13 27L14 27L14 26ZM29 26L29 27L30 27L30 26ZM15 27L15 29L16 29L16 27ZM22 28L22 29L21 29L21 30L20 30L20 29L18 29L18 30L19 30L19 31L22 31L22 29L23 29L23 28ZM29 29L29 32L32 32L32 29ZM30 30L30 31L31 31L31 30ZM10 31L10 32L9 32L9 33L11 33L11 32L12 32L12 31ZM35 34L35 37L37 37L37 36L36 36L36 35L37 35L37 34ZM0 0L0 7L7 7L7 0ZM1 1L1 6L6 6L6 1ZM2 2L2 5L5 5L5 2ZM30 0L30 7L37 7L37 0ZM31 1L31 6L36 6L36 1ZM32 2L32 5L35 5L35 2ZM0 30L0 37L7 37L7 30ZM1 31L1 36L6 36L6 31ZM2 32L2 35L5 35L5 32Z" fill="#000000"/></g></g></svg>
