<?xml version="1.0" encoding="UTF-8"?>
<svg xmlns="http://www.w3.org/2000/svg" version="1.1" width="300" height="300" viewBox="0 0 300 300"><rect x="0" y="0" width="300" height="300" fill="#ffffff"/><g transform="scale(9.091)"><g transform="translate(0,0)"><path fill-rule="evenodd" d="M9 0L9 1L8 1L8 3L9 3L9 4L8 4L8 8L6 8L6 9L4 9L4 8L3 8L3 9L2 9L2 8L0 8L0 9L2 9L2 10L0 10L0 14L1 14L1 15L4 15L4 16L0 16L0 17L2 17L2 18L0 18L0 21L1 21L1 22L0 22L0 23L1 23L1 24L0 24L0 25L1 25L1 24L3 24L3 23L2 23L2 20L3 20L3 22L4 22L4 23L5 23L5 24L6 24L6 25L8 25L8 27L10 27L10 29L11 29L11 30L9 30L9 29L8 29L8 30L9 30L9 31L8 31L8 33L9 33L9 31L10 31L10 33L11 33L11 30L12 30L12 31L15 31L15 26L14 26L14 27L13 27L13 25L14 25L14 22L13 22L13 21L15 21L15 17L13 17L13 16L14 16L14 15L15 15L15 14L14 14L14 12L15 12L15 13L16 13L16 15L17 15L17 18L16 18L16 19L17 19L17 20L16 20L16 22L18 22L18 21L17 21L17 20L20 20L20 19L21 19L21 22L19 22L19 23L18 23L18 24L17 24L17 23L15 23L15 24L16 24L16 25L17 25L17 26L18 26L18 27L17 27L17 28L16 28L16 33L17 33L17 32L18 32L18 33L19 33L19 32L21 32L21 33L22 33L22 32L23 32L23 33L25 33L25 32L26 32L26 30L27 30L27 31L28 31L28 32L27 32L27 33L30 33L30 32L29 32L29 24L30 24L30 23L33 23L33 21L31 21L31 22L28 22L28 21L26 21L26 22L24 22L24 24L22 24L22 21L25 21L25 20L22 20L22 19L21 19L21 18L22 18L22 17L23 17L23 18L24 18L24 19L25 19L25 17L27 17L27 18L26 18L26 20L29 20L29 19L27 19L27 18L28 18L28 17L29 17L29 18L31 18L31 19L32 19L32 20L33 20L33 18L32 18L32 17L33 17L33 16L32 16L32 17L29 17L29 15L27 15L27 16L26 16L26 14L29 14L29 13L30 13L30 14L31 14L31 15L32 15L32 14L33 14L33 9L32 9L32 8L30 8L30 9L29 9L29 8L26 8L26 10L25 10L25 9L24 9L24 8L23 8L23 5L24 5L24 4L25 4L25 1L24 1L24 0L23 0L23 2L22 2L22 1L21 1L21 2L20 2L20 3L19 3L19 1L20 1L20 0L17 0L17 1L16 1L16 0L14 0L14 1L15 1L15 2L14 2L14 4L12 4L12 3L13 3L13 2L12 2L12 0L11 0L11 2L12 2L12 3L11 3L11 5L10 5L10 3L9 3L9 2L10 2L10 0ZM15 2L15 4L14 4L14 5L11 5L11 8L10 8L10 5L9 5L9 8L8 8L8 9L6 9L6 10L9 10L9 11L8 11L8 13L6 13L6 12L7 12L7 11L5 11L5 12L4 12L4 10L2 10L2 11L1 11L1 12L2 12L2 11L3 11L3 13L2 13L2 14L3 14L3 13L4 13L4 14L5 14L5 15L6 15L6 16L4 16L4 17L3 17L3 20L4 20L4 18L5 18L5 19L6 19L6 20L5 20L5 21L4 21L4 22L5 22L5 23L6 23L6 24L7 24L7 23L8 23L8 25L10 25L10 26L12 26L12 25L13 25L13 22L12 22L12 21L11 21L11 23L12 23L12 24L10 24L10 23L9 23L9 22L10 22L10 20L11 20L11 19L12 19L12 18L10 18L10 20L9 20L9 19L8 19L8 18L9 18L9 17L10 17L10 16L11 16L11 17L12 17L12 16L11 16L11 15L10 15L10 14L12 14L12 13L13 13L13 10L12 10L12 9L11 9L11 8L12 8L12 6L13 6L13 8L14 8L14 5L15 5L15 4L17 4L17 5L16 5L16 6L15 6L15 10L14 10L14 11L17 11L17 12L18 12L18 14L19 14L19 15L20 15L20 14L19 14L19 10L20 10L20 11L23 11L23 12L22 12L22 13L21 13L21 15L23 15L23 17L24 17L24 15L23 15L23 14L24 14L24 13L23 13L23 12L25 12L25 13L26 13L26 12L27 12L27 13L29 13L29 11L30 11L30 12L31 12L31 11L32 11L32 9L30 9L30 10L29 10L29 9L28 9L28 10L27 10L27 11L25 11L25 10L24 10L24 9L23 9L23 8L22 8L22 10L20 10L20 9L21 9L21 8L20 8L20 6L19 6L19 8L17 8L17 9L16 9L16 6L17 6L17 7L18 7L18 3L17 3L17 2ZM21 2L21 3L20 3L20 4L19 4L19 5L21 5L21 7L22 7L22 5L23 5L23 4L22 4L22 2ZM23 2L23 3L24 3L24 2ZM21 4L21 5L22 5L22 4ZM24 6L24 7L25 7L25 6ZM9 9L9 10L10 10L10 9ZM17 10L17 11L18 11L18 10ZM28 10L28 11L27 11L27 12L28 12L28 11L29 11L29 10ZM30 10L30 11L31 11L31 10ZM9 11L9 12L10 12L10 13L11 13L11 12L12 12L12 11ZM5 13L5 14L6 14L6 15L7 15L7 16L6 16L6 17L5 17L5 18L6 18L6 19L7 19L7 18L8 18L8 15L7 15L7 14L6 14L6 13ZM22 13L22 14L23 14L23 13ZM31 13L31 14L32 14L32 13ZM9 15L9 16L10 16L10 15ZM18 16L18 18L17 18L17 19L20 19L20 18L21 18L21 17L20 17L20 16ZM6 17L6 18L7 18L7 17ZM13 18L13 20L14 20L14 18ZM6 20L6 21L7 21L7 20ZM8 20L8 21L9 21L9 20ZM6 22L6 23L7 23L7 22ZM27 22L27 23L25 23L25 24L27 24L27 23L28 23L28 24L29 24L29 23L28 23L28 22ZM20 23L20 24L21 24L21 23ZM18 25L18 26L19 26L19 27L18 27L18 28L21 28L21 26L23 26L23 27L22 27L22 30L23 30L23 31L24 31L24 28L23 28L23 27L24 27L24 26L23 26L23 25L20 25L20 26L19 26L19 25ZM25 25L25 28L28 28L28 25ZM30 25L30 27L31 27L31 28L32 28L32 26L33 26L33 25ZM26 26L26 27L27 27L27 26ZM11 27L11 29L12 29L12 30L13 30L13 29L14 29L14 28L13 28L13 27ZM12 28L12 29L13 29L13 28ZM19 29L19 31L18 31L18 32L19 32L19 31L20 31L20 29ZM27 29L27 30L28 30L28 29ZM31 29L31 31L33 31L33 29ZM13 32L13 33L14 33L14 32ZM31 32L31 33L32 33L32 32ZM0 0L0 7L7 7L7 0ZM1 1L1 6L6 6L6 1ZM2 2L2 5L5 5L5 2ZM26 0L26 7L33 7L33 0ZM27 1L27 6L32 6L32 1ZM28 2L28 5L31 5L31 2ZM0 26L0 33L7 33L7 26ZM1 27L1 32L6 32L6 27ZM2 28L2 31L5 31L5 28Z" fill="#000000"/></g></g></svg>
