<?xml version="1.0" encoding="UTF-8"?>
<svg xmlns="http://www.w3.org/2000/svg" version="1.1" width="300" height="300" viewBox="0 0 300 300"><rect x="0" y="0" width="300" height="300" fill="#ffffff"/><g transform="scale(8.108)"><g transform="translate(0,0)"><path fill-rule="evenodd" d="M8 0L8 1L9 1L9 2L10 2L10 3L11 3L11 1L13 1L13 0L11 0L11 1L9 1L9 0ZM15 0L15 1L16 1L16 2L15 2L15 3L16 3L16 4L14 4L14 5L15 5L15 6L14 6L14 7L13 7L13 5L12 5L12 4L13 4L13 2L12 2L12 4L11 4L11 5L10 5L10 4L9 4L9 5L10 5L10 8L9 8L9 6L8 6L8 8L9 8L9 9L8 9L8 10L6 10L6 9L7 9L7 8L6 8L6 9L5 9L5 8L3 8L3 10L2 10L2 11L3 11L3 13L5 13L5 14L3 14L3 15L4 15L4 16L6 16L6 17L5 17L5 18L4 18L4 17L3 17L3 16L1 16L1 15L2 15L2 13L1 13L1 10L0 10L0 13L1 13L1 14L0 14L0 16L1 16L1 18L2 18L2 19L1 19L1 20L2 20L2 19L3 19L3 18L4 18L4 20L5 20L5 21L3 21L3 22L1 22L1 23L0 23L0 24L1 24L1 25L0 25L0 29L1 29L1 27L3 27L3 28L2 28L2 29L4 29L4 27L5 27L5 29L7 29L7 28L8 28L8 30L9 30L9 28L10 28L10 29L11 29L11 30L12 30L12 31L11 31L11 32L8 32L8 34L9 34L9 35L8 35L8 37L10 37L10 35L11 35L11 37L14 37L14 31L15 31L15 35L16 35L16 36L19 36L19 37L20 37L20 36L21 36L21 35L22 35L22 36L23 36L23 37L25 37L25 32L26 32L26 33L30 33L30 34L29 34L29 36L28 36L28 37L30 37L30 36L31 36L31 37L34 37L34 36L36 36L36 37L37 37L37 30L36 30L36 33L34 33L34 34L32 34L32 33L33 33L33 32L34 32L34 31L35 31L35 29L36 29L36 27L37 27L37 26L36 26L36 27L34 27L34 26L33 26L33 25L34 25L34 24L35 24L35 25L37 25L37 24L36 24L36 23L37 23L37 22L36 22L36 23L33 23L33 25L32 25L32 24L30 24L30 23L31 23L31 22L29 22L29 23L28 23L28 17L32 17L32 16L34 16L34 17L33 17L33 18L32 18L32 19L30 19L30 18L29 18L29 19L30 19L30 21L31 21L31 20L32 20L32 22L34 22L34 19L35 19L35 21L37 21L37 18L36 18L36 17L37 17L37 14L36 14L36 13L37 13L37 8L36 8L36 9L35 9L35 10L34 10L34 9L32 9L32 10L30 10L30 9L31 9L31 8L30 8L30 9L29 9L29 8L27 8L27 6L26 6L26 5L27 5L27 4L28 4L28 5L29 5L29 3L28 3L28 2L29 2L29 1L28 1L28 2L26 2L26 1L27 1L27 0L25 0L25 3L24 3L24 4L26 4L26 5L22 5L22 3L23 3L23 0L22 0L22 1L19 1L19 0ZM17 1L17 3L18 3L18 4L17 4L17 5L18 5L18 6L17 6L17 8L15 8L15 7L16 7L16 6L15 6L15 7L14 7L14 13L15 13L15 14L14 14L14 15L12 15L12 16L11 16L11 17L10 17L10 16L8 16L8 14L9 14L9 15L10 15L10 14L13 14L13 13L11 13L11 12L9 12L9 13L8 13L8 12L7 12L7 11L6 11L6 12L5 12L5 11L4 11L4 12L5 12L5 13L6 13L6 14L7 14L7 15L6 15L6 16L8 16L8 18L7 18L7 17L6 17L6 18L7 18L7 19L5 19L5 20L7 20L7 19L8 19L8 20L9 20L9 21L10 21L10 18L11 18L11 17L14 17L14 16L15 16L15 18L12 18L12 19L11 19L11 22L10 22L10 23L9 23L9 22L8 22L8 21L5 21L5 22L3 22L3 23L2 23L2 25L1 25L1 26L2 26L2 25L4 25L4 23L5 23L5 22L7 22L7 23L6 23L6 24L5 24L5 25L6 25L6 26L7 26L7 27L6 27L6 28L7 28L7 27L8 27L8 28L9 28L9 27L10 27L10 26L8 26L8 25L6 25L6 24L9 24L9 25L11 25L11 28L12 28L12 27L14 27L14 26L16 26L16 27L15 27L15 28L13 28L13 29L12 29L12 30L15 30L15 29L16 29L16 30L17 30L17 29L18 29L18 31L16 31L16 32L18 32L18 33L17 33L17 34L18 34L18 35L19 35L19 36L20 36L20 35L21 35L21 34L23 34L23 32L25 32L25 31L23 31L23 32L22 32L22 31L21 31L21 32L20 32L20 31L19 31L19 28L21 28L21 29L20 29L20 30L21 30L21 29L22 29L22 30L24 30L24 29L22 29L22 26L23 26L23 27L24 27L24 26L26 26L26 27L25 27L25 28L26 28L26 29L25 29L25 30L26 30L26 31L28 31L28 27L29 27L29 28L30 28L30 27L31 27L31 28L33 28L33 27L31 27L31 25L29 25L29 24L28 24L28 25L29 25L29 26L28 26L28 27L27 27L27 24L26 24L26 23L27 23L27 21L26 21L26 20L27 20L27 19L26 19L26 20L25 20L25 21L24 21L24 24L23 24L23 25L22 25L22 23L23 23L23 21L22 21L22 20L24 20L24 19L25 19L25 17L23 17L23 16L26 16L26 17L27 17L27 16L29 16L29 15L27 15L27 14L25 14L25 13L26 13L26 12L27 12L27 13L28 13L28 12L31 12L31 13L30 13L30 14L31 14L31 15L30 15L30 16L32 16L32 15L33 15L33 14L31 14L31 13L33 13L33 12L32 12L32 11L29 11L29 9L28 9L28 12L27 12L27 11L24 11L24 12L25 12L25 13L24 13L24 14L23 14L23 11L21 11L21 9L23 9L23 8L25 8L25 9L24 9L24 10L25 10L25 9L26 9L26 10L27 10L27 8L25 8L25 7L26 7L26 6L25 6L25 7L24 7L24 6L23 6L23 8L22 8L22 5L21 5L21 4L20 4L20 5L18 5L18 4L19 4L19 3L20 3L20 2L18 2L18 1ZM11 5L11 7L12 7L12 9L9 9L9 11L11 11L11 10L12 10L12 11L13 11L13 10L12 10L12 9L13 9L13 7L12 7L12 5ZM18 6L18 7L19 7L19 9L18 9L18 8L17 8L17 9L16 9L16 10L15 10L15 11L16 11L16 12L15 12L15 13L16 13L16 15L15 15L15 16L16 16L16 18L15 18L15 19L14 19L14 20L13 20L13 19L12 19L12 21L14 21L14 24L13 24L13 25L12 25L12 26L13 26L13 25L15 25L15 24L16 24L16 25L17 25L17 26L18 26L18 27L20 27L20 26L21 26L21 24L20 24L20 23L21 23L21 22L22 22L22 21L21 21L21 22L20 22L20 21L19 21L19 20L20 20L20 19L21 19L21 15L22 15L22 14L19 14L19 13L20 13L20 11L19 11L19 12L18 12L18 10L20 10L20 9L21 9L21 8L20 8L20 7L21 7L21 6L20 6L20 7L19 7L19 6ZM28 6L28 7L29 7L29 6ZM0 8L0 9L2 9L2 8ZM17 9L17 10L18 10L18 9ZM33 10L33 11L34 11L34 10ZM35 10L35 11L36 11L36 10ZM6 12L6 13L7 13L7 14L8 14L8 13L7 13L7 12ZM17 12L17 14L18 14L18 12ZM34 12L34 13L35 13L35 12ZM9 13L9 14L10 14L10 13ZM24 14L24 15L25 15L25 14ZM34 14L34 15L35 15L35 17L36 17L36 15L35 15L35 14ZM16 15L16 16L17 16L17 18L16 18L16 19L15 19L15 20L18 20L18 18L19 18L19 17L20 17L20 15L19 15L19 17L18 17L18 15ZM26 15L26 16L27 16L27 15ZM9 17L9 18L8 18L8 19L9 19L9 18L10 18L10 17ZM22 17L22 19L24 19L24 18L23 18L23 17ZM33 18L33 19L32 19L32 20L33 20L33 19L34 19L34 18ZM35 18L35 19L36 19L36 18ZM15 21L15 23L16 23L16 24L17 24L17 25L18 25L18 26L20 26L20 25L19 25L19 24L17 24L17 23L18 23L18 21ZM12 22L12 23L13 23L13 22ZM19 22L19 23L20 23L20 22ZM10 23L10 24L11 24L11 23ZM24 24L24 25L23 25L23 26L24 26L24 25L25 25L25 24ZM3 26L3 27L4 27L4 26ZM29 26L29 27L30 27L30 26ZM16 28L16 29L17 29L17 28ZM26 29L26 30L27 30L27 29ZM29 29L29 32L32 32L32 29ZM30 30L30 31L31 31L31 30ZM33 30L33 31L34 31L34 30ZM12 31L12 33L11 33L11 34L12 34L12 35L13 35L13 34L12 34L12 33L13 33L13 31ZM19 32L19 34L21 34L21 33L20 33L20 32ZM9 33L9 34L10 34L10 33ZM30 34L30 35L31 35L31 36L32 36L32 34ZM35 34L35 35L36 35L36 34ZM23 35L23 36L24 36L24 35ZM26 35L26 37L27 37L27 35ZM33 35L33 36L34 36L34 35ZM0 0L0 7L7 7L7 0ZM1 1L1 6L6 6L6 1ZM2 2L2 5L5 5L5 2ZM30 0L30 7L37 7L37 0ZM31 1L31 6L36 6L36 1ZM32 2L32 5L35 5L35 2ZM0 30L0 37L7 37L7 30ZM1 31L1 36L6 36L6 31ZM2 32L2 35L5 35L5 32Z" fill="#000000"/></g></g></svg>
