<?xml version="1.0" encoding="UTF-8"?>
<svg xmlns="http://www.w3.org/2000/svg" version="1.1" width="300" height="300" viewBox="0 0 300 300"><rect x="0" y="0" width="300" height="300" fill="#ffffff"/><g transform="scale(8.108)"><g transform="translate(0,0)"><path fill-rule="evenodd" d="M8 0L8 4L10 4L10 3L11 3L11 4L12 4L12 2L11 2L11 0ZM12 0L12 1L13 1L13 0ZM14 0L14 1L15 1L15 0ZM21 0L21 1L22 1L22 2L21 2L21 3L20 3L20 1L19 1L19 3L18 3L18 2L17 2L17 1L16 1L16 2L15 2L15 3L14 3L14 2L13 2L13 3L14 3L14 4L13 4L13 5L11 5L11 6L10 6L10 7L9 7L9 5L8 5L8 7L9 7L9 8L10 8L10 7L11 7L11 6L12 6L12 8L11 8L11 9L10 9L10 10L11 10L11 11L9 11L9 9L8 9L8 11L9 11L9 12L10 12L10 14L8 14L8 13L7 13L7 12L6 12L6 13L5 13L5 16L4 16L4 17L3 17L3 14L4 14L4 10L5 10L5 9L7 9L7 8L4 8L4 9L2 9L2 8L0 8L0 10L3 10L3 11L2 11L2 14L1 14L1 12L0 12L0 15L2 15L2 16L1 16L1 17L0 17L0 18L1 18L1 17L3 17L3 18L2 18L2 19L3 19L3 20L2 20L2 22L1 22L1 23L3 23L3 24L0 24L0 26L2 26L2 25L3 25L3 24L4 24L4 21L5 21L5 20L4 20L4 19L3 19L3 18L4 18L4 17L5 17L5 18L6 18L6 19L7 19L7 20L6 20L6 21L7 21L7 22L6 22L6 23L5 23L5 26L3 26L3 27L2 27L2 28L0 28L0 29L2 29L2 28L3 28L3 27L5 27L5 26L6 26L6 27L7 27L7 28L5 28L5 29L8 29L8 30L9 30L9 31L8 31L8 33L9 33L9 34L10 34L10 35L8 35L8 37L9 37L9 36L12 36L12 37L14 37L14 35L16 35L16 34L17 34L17 37L18 37L18 36L20 36L20 37L21 37L21 36L22 36L22 37L23 37L23 35L24 35L24 33L25 33L25 31L26 31L26 30L28 30L28 34L27 34L27 32L26 32L26 35L29 35L29 37L33 37L33 36L34 36L34 37L37 37L37 36L36 36L36 35L34 35L34 34L33 34L33 35L32 35L32 36L31 36L31 33L35 33L35 34L37 34L37 31L35 31L35 30L36 30L36 29L35 29L35 27L36 27L36 28L37 28L37 27L36 27L36 26L35 26L35 27L34 27L34 26L33 26L33 25L32 25L32 24L31 24L31 23L30 23L30 22L29 22L29 21L28 21L28 20L27 20L27 19L29 19L29 20L30 20L30 21L31 21L31 22L32 22L32 23L33 23L33 22L34 22L34 25L35 25L35 24L36 24L36 25L37 25L37 23L35 23L35 21L37 21L37 20L35 20L35 18L34 18L34 17L37 17L37 16L36 16L36 15L34 15L34 14L36 14L36 13L37 13L37 12L36 12L36 11L34 11L34 13L31 13L31 12L32 12L32 11L33 11L33 10L37 10L37 8L33 8L33 9L32 9L32 8L31 8L31 10L30 10L30 9L25 9L25 5L26 5L26 7L27 7L27 8L28 8L28 7L29 7L29 5L28 5L28 4L29 4L29 2L28 2L28 3L27 3L27 4L26 4L26 3L25 3L25 5L24 5L24 2L23 2L23 1L24 1L24 0L23 0L23 1L22 1L22 0ZM27 0L27 1L26 1L26 2L27 2L27 1L28 1L28 0ZM9 2L9 3L10 3L10 2ZM16 2L16 3L15 3L15 4L18 4L18 3L17 3L17 2ZM22 2L22 3L21 3L21 4L20 4L20 3L19 3L19 5L18 5L18 6L17 6L17 5L15 5L15 9L13 9L13 8L14 8L14 6L13 6L13 8L12 8L12 9L11 9L11 10L12 10L12 9L13 9L13 10L15 10L15 9L16 9L16 10L18 10L18 11L19 11L19 12L18 12L18 13L19 13L19 15L20 15L20 16L21 16L21 15L22 15L22 14L21 14L21 13L20 13L20 11L22 11L22 10L23 10L23 8L24 8L24 5L23 5L23 2ZM19 5L19 6L18 6L18 7L17 7L17 6L16 6L16 8L17 8L17 9L18 9L18 10L19 10L19 9L22 9L22 7L23 7L23 5L22 5L22 7L21 7L21 6L20 6L20 5ZM27 5L27 7L28 7L28 5ZM19 6L19 7L18 7L18 9L19 9L19 8L21 8L21 7L20 7L20 6ZM24 9L24 10L25 10L25 13L24 13L24 12L22 12L22 13L24 13L24 15L25 15L25 17L24 17L24 19L25 19L25 21L24 21L24 20L23 20L23 21L24 21L24 23L25 23L25 25L24 25L24 24L23 24L23 23L22 23L22 20L21 20L21 22L20 22L20 19L22 19L22 18L23 18L23 16L22 16L22 17L21 17L21 18L20 18L20 17L19 17L19 16L18 16L18 17L17 17L17 16L15 16L15 17L13 17L13 16L14 16L14 15L15 15L15 14L13 14L13 13L12 13L12 12L13 12L13 11L12 11L12 12L11 12L11 14L10 14L10 16L12 16L12 17L9 17L9 19L8 19L8 18L7 18L7 17L6 17L6 18L7 18L7 19L8 19L8 20L7 20L7 21L10 21L10 22L9 22L9 23L6 23L6 24L8 24L8 26L7 26L7 25L6 25L6 26L7 26L7 27L8 27L8 29L9 29L9 27L8 27L8 26L9 26L9 24L12 24L12 25L11 25L11 26L12 26L12 25L13 25L13 26L15 26L15 25L13 25L13 24L14 24L14 23L15 23L15 22L13 22L13 21L12 21L12 20L13 20L13 19L12 19L12 20L11 20L11 19L10 19L10 18L12 18L12 17L13 17L13 18L15 18L15 17L17 17L17 18L16 18L16 21L17 21L17 22L16 22L16 25L17 25L17 23L18 23L18 24L19 24L19 23L20 23L20 24L21 24L21 25L22 25L22 26L23 26L23 25L24 25L24 26L25 26L25 27L24 27L24 28L25 28L25 29L24 29L24 30L25 30L25 29L26 29L26 27L27 27L27 29L28 29L28 27L31 27L31 28L32 28L32 26L31 26L31 25L29 25L29 26L28 26L28 27L27 27L27 26L25 26L25 25L28 25L28 24L29 24L29 23L28 23L28 24L27 24L27 20L26 20L26 19L27 19L27 18L26 18L26 17L29 17L29 19L30 19L30 20L31 20L31 21L34 21L34 18L32 18L32 19L30 19L30 18L31 18L31 17L33 17L33 16L34 16L34 15L32 15L32 14L31 14L31 13L30 13L30 12L31 12L31 11L30 11L30 12L29 12L29 10L28 10L28 13L29 13L29 14L28 14L28 15L29 15L29 14L30 14L30 15L32 15L32 16L31 16L31 17L30 17L30 16L26 16L26 13L27 13L27 12L26 12L26 11L27 11L27 10L25 10L25 9ZM6 10L6 11L7 11L7 10ZM14 11L14 13L17 13L17 11L16 11L16 12L15 12L15 11ZM35 12L35 13L36 13L36 12ZM6 13L6 14L7 14L7 15L6 15L6 16L8 16L8 14L7 14L7 13ZM16 14L16 15L17 15L17 14ZM12 15L12 16L13 16L13 15ZM18 17L18 18L17 18L17 21L18 21L18 22L19 22L19 17ZM14 19L14 21L15 21L15 19ZM32 19L32 20L33 20L33 19ZM10 20L10 21L11 21L11 20ZM25 21L25 23L26 23L26 21ZM10 22L10 23L11 23L11 22ZM12 23L12 24L13 24L13 23ZM21 23L21 24L22 24L22 25L23 25L23 24L22 24L22 23ZM18 25L18 26L16 26L16 27L18 27L18 28L19 28L19 29L20 29L20 30L18 30L18 29L17 29L17 28L15 28L15 27L14 27L14 29L17 29L17 31L18 31L18 33L19 33L19 31L20 31L20 34L19 34L19 35L20 35L20 34L22 34L22 35L23 35L23 34L22 34L22 32L23 32L23 31L22 31L22 28L23 28L23 27L22 27L22 28L21 28L21 29L20 29L20 28L19 28L19 27L20 27L20 25ZM12 27L12 28L11 28L11 29L10 29L10 31L9 31L9 33L11 33L11 34L12 34L12 33L13 33L13 34L15 34L15 33L13 33L13 32L14 32L14 31L15 31L15 30L13 30L13 29L12 29L12 28L13 28L13 27ZM33 27L33 29L34 29L34 30L33 30L33 32L34 32L34 30L35 30L35 29L34 29L34 27ZM29 29L29 32L32 32L32 29ZM20 30L20 31L21 31L21 32L22 32L22 31L21 31L21 30ZM30 30L30 31L31 31L31 30ZM10 31L10 32L11 32L11 33L12 33L12 32L13 32L13 31L12 31L12 32L11 32L11 31ZM16 32L16 33L17 33L17 32ZM12 35L12 36L13 36L13 35ZM15 36L15 37L16 37L16 36ZM24 36L24 37L25 37L25 36ZM26 36L26 37L28 37L28 36ZM0 0L0 7L7 7L7 0ZM1 1L1 6L6 6L6 1ZM2 2L2 5L5 5L5 2ZM30 0L30 7L37 7L37 0ZM31 1L31 6L36 6L36 1ZM32 2L32 5L35 5L35 2ZM0 30L0 37L7 37L7 30ZM1 31L1 36L6 36L6 31ZM2 32L2 35L5 35L5 32Z" fill="#000000"/></g></g></svg>
