<?xml version="1.0" encoding="UTF-8"?>
<svg xmlns="http://www.w3.org/2000/svg" version="1.1" width="300" height="300" viewBox="0 0 300 300"><rect x="0" y="0" width="300" height="300" fill="#ffffff"/><g transform="scale(8.108)"><g transform="translate(0,0)"><path fill-rule="evenodd" d="M8 0L8 4L9 4L9 5L8 5L8 7L9 7L9 6L10 6L10 9L11 9L11 8L12 8L12 9L13 9L13 10L15 10L15 11L14 11L14 12L13 12L13 11L12 11L12 12L10 12L10 11L9 11L9 12L8 12L8 13L9 13L9 14L11 14L11 15L10 15L10 16L12 16L12 17L13 17L13 18L15 18L15 19L14 19L14 20L13 20L13 19L12 19L12 20L11 20L11 18L10 18L10 20L11 20L11 21L8 21L8 20L9 20L9 17L8 17L8 16L9 16L9 15L8 15L8 14L6 14L6 15L4 15L4 14L2 14L2 13L3 13L3 12L4 12L4 13L5 13L5 10L6 10L6 11L7 11L7 10L6 10L6 9L7 9L7 8L4 8L4 9L2 9L2 8L0 8L0 10L1 10L1 11L3 11L3 12L2 12L2 13L1 13L1 12L0 12L0 14L1 14L1 15L0 15L0 16L1 16L1 17L0 17L0 18L1 18L1 17L2 17L2 19L0 19L0 20L1 20L1 21L0 21L0 23L2 23L2 25L1 25L1 24L0 24L0 26L2 26L2 28L0 28L0 29L8 29L8 30L9 30L9 31L8 31L8 33L10 33L10 34L11 34L11 32L12 32L12 33L13 33L13 34L15 34L15 35L14 35L14 36L13 36L13 35L12 35L12 36L11 36L11 35L8 35L8 37L10 37L10 36L11 36L11 37L12 37L12 36L13 36L13 37L15 37L15 35L16 35L16 36L17 36L17 37L20 37L20 35L21 35L21 36L22 36L22 37L25 37L25 35L26 35L26 36L27 36L27 37L28 37L28 36L27 36L27 35L29 35L29 37L33 37L33 36L34 36L34 37L37 37L37 36L36 36L36 35L34 35L34 34L33 34L33 35L32 35L32 36L31 36L31 33L35 33L35 34L37 34L37 31L36 31L36 32L35 32L35 30L36 30L36 29L35 29L35 27L36 27L36 28L37 28L37 27L36 27L36 26L35 26L35 27L34 27L34 26L33 26L33 25L32 25L32 24L31 24L31 23L30 23L30 22L29 22L29 21L28 21L28 20L27 20L27 21L25 21L25 20L24 20L24 21L23 21L23 20L22 20L22 17L23 17L23 19L24 19L24 17L25 17L25 19L29 19L29 20L30 20L30 21L31 21L31 22L32 22L32 23L33 23L33 22L34 22L34 25L35 25L35 24L36 24L36 25L37 25L37 23L35 23L35 21L37 21L37 20L35 20L35 18L34 18L34 17L37 17L37 16L36 16L36 15L34 15L34 14L36 14L36 13L37 13L37 12L36 12L36 11L34 11L34 13L31 13L31 12L30 12L30 9L26 9L26 8L25 8L25 5L26 5L26 7L27 7L27 8L28 8L28 7L29 7L29 5L28 5L28 4L29 4L29 2L28 2L28 3L27 3L27 4L26 4L26 3L25 3L25 1L24 1L24 0L23 0L23 1L22 1L22 0L20 0L20 1L19 1L19 0L18 0L18 1L17 1L17 0L15 0L15 1L17 1L17 2L16 2L16 3L15 3L15 2L14 2L14 1L11 1L11 2L12 2L12 5L13 5L13 2L14 2L14 3L15 3L15 4L14 4L14 5L16 5L16 7L15 7L15 6L14 6L14 7L13 7L13 6L12 6L12 7L11 7L11 3L10 3L10 2L9 2L9 0ZM27 0L27 1L26 1L26 2L27 2L27 1L28 1L28 0ZM21 1L21 2L22 2L22 1ZM23 1L23 2L24 2L24 1ZM18 2L18 3L17 3L17 4L16 4L16 5L17 5L17 7L16 7L16 8L15 8L15 7L14 7L14 9L17 9L17 10L18 10L18 11L19 11L19 12L18 12L18 13L17 13L17 11L16 11L16 12L15 12L15 13L13 13L13 12L12 12L12 13L11 13L11 14L12 14L12 13L13 13L13 14L15 14L15 13L17 13L17 15L16 15L16 17L17 17L17 18L16 18L16 19L17 19L17 18L19 18L19 19L18 19L18 21L19 21L19 23L18 23L18 22L17 22L17 23L18 23L18 25L17 25L17 24L16 24L16 23L14 23L14 25L15 25L15 26L13 26L13 25L12 25L12 24L13 24L13 23L12 23L12 24L11 24L11 25L10 25L10 26L8 26L8 29L10 29L10 32L11 32L11 30L12 30L12 29L13 29L13 30L15 30L15 29L16 29L16 30L17 30L17 28L16 28L16 27L15 27L15 26L16 26L16 25L17 25L17 26L18 26L18 27L20 27L20 28L21 28L21 27L22 27L22 26L23 26L23 21L20 21L20 20L19 20L19 19L21 19L21 17L19 17L19 16L21 16L21 15L20 15L20 14L23 14L23 13L20 13L20 11L23 11L23 9L24 9L24 10L26 10L26 11L24 11L24 12L25 12L25 13L24 13L24 14L25 14L25 17L29 17L29 19L30 19L30 20L31 20L31 21L34 21L34 18L32 18L32 19L30 19L30 18L31 18L31 17L33 17L33 16L34 16L34 15L32 15L32 14L31 14L31 13L30 13L30 12L29 12L29 10L28 10L28 13L29 13L29 14L28 14L28 15L29 15L29 14L30 14L30 15L31 15L31 17L30 17L30 16L26 16L26 14L25 14L25 13L27 13L27 10L26 10L26 9L24 9L24 8L23 8L23 7L24 7L24 5L25 5L25 3L24 3L24 5L23 5L23 3L20 3L20 2ZM18 3L18 4L17 4L17 5L19 5L19 6L18 6L18 7L17 7L17 9L18 9L18 10L19 10L19 9L20 9L20 10L22 10L22 9L23 9L23 8L22 8L22 7L23 7L23 5L22 5L22 7L21 7L21 4L20 4L20 3ZM19 4L19 5L20 5L20 4ZM27 5L27 7L28 7L28 5ZM19 6L19 7L18 7L18 9L19 9L19 7L20 7L20 8L21 8L21 7L20 7L20 6ZM12 7L12 8L13 8L13 7ZM31 8L31 11L32 11L32 10L37 10L37 8L33 8L33 9L32 9L32 8ZM4 9L4 10L3 10L3 11L4 11L4 10L5 10L5 9ZM8 9L8 10L9 10L9 9ZM6 12L6 13L7 13L7 12ZM9 12L9 13L10 13L10 12ZM35 12L35 13L36 13L36 12ZM6 15L6 16L2 16L2 17L4 17L4 18L7 18L7 19L6 19L6 20L5 20L5 19L4 19L4 20L3 20L3 19L2 19L2 20L3 20L3 22L2 22L2 21L1 21L1 22L2 22L2 23L5 23L5 24L7 24L7 25L5 25L5 26L4 26L4 27L5 27L5 26L7 26L7 25L8 25L8 24L9 24L9 23L10 23L10 22L9 22L9 23L8 23L8 21L6 21L6 20L8 20L8 18L7 18L7 17L6 17L6 16L8 16L8 15ZM12 15L12 16L13 16L13 15ZM14 15L14 17L15 17L15 15ZM17 15L17 17L18 17L18 16L19 16L19 15ZM22 15L22 16L23 16L23 15ZM12 20L12 21L11 21L11 22L12 22L12 21L13 21L13 22L15 22L15 21L17 21L17 20L15 20L15 21L13 21L13 20ZM4 21L4 22L6 22L6 23L7 23L7 24L8 24L8 23L7 23L7 22L6 22L6 21ZM20 22L20 23L21 23L21 24L19 24L19 25L18 25L18 26L19 26L19 25L22 25L22 22ZM24 22L24 23L25 23L25 25L28 25L28 24L29 24L29 23L28 23L28 24L27 24L27 23L25 23L25 22ZM2 25L2 26L3 26L3 25ZM29 25L29 26L28 26L28 27L27 27L27 28L26 28L26 26L24 26L24 27L23 27L23 28L22 28L22 29L24 29L24 28L25 28L25 29L26 29L26 31L25 31L25 30L24 30L24 31L23 31L23 32L22 32L22 33L19 33L19 32L21 32L21 31L22 31L22 30L21 30L21 29L19 29L19 28L18 28L18 29L19 29L19 32L18 32L18 33L16 33L16 34L18 34L18 33L19 33L19 35L20 35L20 34L21 34L21 35L22 35L22 34L23 34L23 32L24 32L24 31L25 31L25 33L24 33L24 34L25 34L25 33L26 33L26 35L27 35L27 34L28 34L28 30L27 30L27 29L28 29L28 27L31 27L31 28L32 28L32 26L31 26L31 25ZM10 26L10 27L11 27L11 26ZM6 27L6 28L7 28L7 27ZM12 27L12 28L11 28L11 29L12 29L12 28L13 28L13 29L15 29L15 27L14 27L14 28L13 28L13 27ZM33 27L33 29L34 29L34 30L33 30L33 32L34 32L34 30L35 30L35 29L34 29L34 27ZM29 29L29 32L32 32L32 29ZM20 30L20 31L21 31L21 30ZM30 30L30 31L31 31L31 30ZM12 31L12 32L13 32L13 31ZM14 31L14 33L15 33L15 32L16 32L16 31ZM23 35L23 36L24 36L24 35ZM0 0L0 7L7 7L7 0ZM1 1L1 6L6 6L6 1ZM2 2L2 5L5 5L5 2ZM30 0L30 7L37 7L37 0ZM31 1L31 6L36 6L36 1ZM32 2L32 5L35 5L35 2ZM0 30L0 37L7 37L7 30ZM1 31L1 36L6 36L6 31ZM2 32L2 35L5 35L5 32Z" fill="#000000"/></g></g></svg>
