<?xml version="1.0" encoding="UTF-8"?>
<svg xmlns="http://www.w3.org/2000/svg" version="1.1" width="300" height="300" viewBox="0 0 300 300"><rect x="0" y="0" width="300" height="300" fill="#ffffff"/><g transform="scale(9.091)"><g transform="translate(0,0)"><path fill-rule="evenodd" d="M9 0L9 1L8 1L8 3L9 3L9 4L8 4L8 8L6 8L6 9L5 9L5 10L4 10L4 8L3 8L3 10L2 10L2 8L0 8L0 9L1 9L1 10L2 10L2 11L1 11L1 14L6 14L6 15L3 15L3 16L2 16L2 17L1 17L1 15L0 15L0 18L2 18L2 19L1 19L1 20L0 20L0 21L1 21L1 22L0 22L0 23L1 23L1 24L0 24L0 25L1 25L1 24L2 24L2 23L4 23L4 24L3 24L3 25L5 25L5 23L8 23L8 22L5 22L5 23L4 23L4 22L3 22L3 21L5 21L5 20L3 20L3 19L4 19L4 18L2 18L2 17L3 17L3 16L4 16L4 17L7 17L7 18L5 18L5 19L7 19L7 18L8 18L8 17L9 17L9 19L8 19L8 21L9 21L9 24L8 24L8 27L9 27L9 26L10 26L10 27L13 27L13 28L12 28L12 29L11 29L11 28L10 28L10 29L8 29L8 30L9 30L9 31L8 31L8 33L16 33L16 32L18 32L18 33L19 33L19 32L18 32L18 31L19 31L19 30L16 30L16 32L15 32L15 31L14 31L14 32L13 32L13 31L10 31L10 30L12 30L12 29L13 29L13 28L15 28L15 27L13 27L13 26L10 26L10 25L9 25L9 24L10 24L10 22L11 22L11 21L16 21L16 22L17 22L17 21L16 21L16 20L19 20L19 21L20 21L20 20L21 20L21 21L22 21L22 22L19 22L19 23L18 23L18 24L17 24L17 23L13 23L13 22L12 22L12 23L11 23L11 25L12 25L12 23L13 23L13 25L14 25L14 24L17 24L17 26L16 26L16 27L17 27L17 29L19 29L19 28L20 28L20 27L21 27L21 29L23 29L23 28L24 28L24 29L25 29L25 30L27 30L27 31L28 31L28 32L26 32L26 33L30 33L30 32L29 32L29 24L30 24L30 23L33 23L33 21L31 21L31 22L28 22L28 21L26 21L26 22L25 22L25 20L29 20L29 19L27 19L27 18L28 18L28 17L29 17L29 18L31 18L31 19L32 19L32 20L33 20L33 18L32 18L32 17L33 17L33 16L32 16L32 17L29 17L29 15L27 15L27 14L29 14L29 13L30 13L30 14L31 14L31 15L32 15L32 14L33 14L33 9L32 9L32 8L30 8L30 9L29 9L29 8L26 8L26 10L25 10L25 9L24 9L24 8L23 8L23 9L24 9L24 11L23 11L23 10L22 10L22 11L21 11L21 12L20 12L20 10L21 10L21 9L22 9L22 7L23 7L23 6L22 6L22 5L21 5L21 6L20 6L20 5L19 5L19 4L20 4L20 3L21 3L21 2L20 2L20 3L19 3L19 1L20 1L20 0L18 0L18 1L17 1L17 0L14 0L14 1L13 1L13 2L12 2L12 0L11 0L11 2L12 2L12 3L11 3L11 5L10 5L10 3L9 3L9 2L10 2L10 0ZM21 0L21 1L23 1L23 2L22 2L22 4L23 4L23 5L24 5L24 7L25 7L25 5L24 5L24 4L25 4L25 3L24 3L24 0ZM14 1L14 2L13 2L13 3L12 3L12 4L13 4L13 5L14 5L14 6L13 6L13 7L12 7L12 5L11 5L11 7L12 7L12 8L10 8L10 5L9 5L9 8L8 8L8 9L10 9L10 10L7 10L7 9L6 9L6 10L7 10L7 11L6 11L6 12L7 12L7 11L11 11L11 13L10 13L10 12L8 12L8 13L6 13L6 14L7 14L7 15L6 15L6 16L7 16L7 17L8 17L8 16L7 16L7 15L9 15L9 13L10 13L10 15L11 15L11 14L12 14L12 17L14 17L14 18L13 18L13 19L12 19L12 18L10 18L10 19L11 19L11 20L9 20L9 21L11 21L11 20L15 20L15 19L18 19L18 18L19 18L19 20L20 20L20 17L19 17L19 16L21 16L21 15L23 15L23 14L24 14L24 16L27 16L27 15L26 15L26 14L24 14L24 13L26 13L26 12L25 12L25 11L24 11L24 12L22 12L22 13L23 13L23 14L19 14L19 12L18 12L18 11L19 11L19 10L20 10L20 9L21 9L21 7L22 7L22 6L21 6L21 7L20 7L20 6L19 6L19 7L18 7L18 5L17 5L17 4L18 4L18 3L17 3L17 2L15 2L15 1ZM14 3L14 5L15 5L15 6L14 6L14 7L15 7L15 6L16 6L16 9L17 9L17 10L16 10L16 11L15 11L15 10L14 10L14 9L15 9L15 8L13 8L13 9L12 9L12 12L13 12L13 13L12 13L12 14L13 14L13 16L16 16L16 18L17 18L17 17L18 17L18 15L17 15L17 14L16 14L16 15L14 15L14 14L15 14L15 13L14 13L14 11L15 11L15 12L17 12L17 13L18 13L18 12L17 12L17 10L18 10L18 9L17 9L17 8L18 8L18 7L17 7L17 6L16 6L16 4L15 4L15 3ZM19 8L19 9L20 9L20 8ZM28 9L28 10L26 10L26 11L28 11L28 12L27 12L27 13L29 13L29 11L30 11L30 12L31 12L31 11L32 11L32 9L30 9L30 10L29 10L29 9ZM28 10L28 11L29 11L29 10ZM30 10L30 11L31 11L31 10ZM3 11L3 12L2 12L2 13L3 13L3 12L4 12L4 13L5 13L5 12L4 12L4 11ZM13 13L13 14L14 14L14 13ZM31 13L31 14L32 14L32 13ZM10 16L10 17L11 17L11 16ZM22 16L22 18L23 18L23 20L24 20L24 18L23 18L23 16ZM25 17L25 18L27 18L27 17ZM2 20L2 21L3 21L3 20ZM6 20L6 21L7 21L7 20ZM23 21L23 22L22 22L22 24L23 24L23 25L24 25L24 24L25 24L25 23L24 23L24 21ZM26 22L26 23L28 23L28 24L29 24L29 23L28 23L28 22ZM19 23L19 24L18 24L18 27L20 27L20 26L21 26L21 25L20 25L20 23ZM23 23L23 24L24 24L24 23ZM6 24L6 25L7 25L7 24ZM19 25L19 26L20 26L20 25ZM25 25L25 28L28 28L28 25ZM30 25L30 27L31 27L31 28L32 28L32 26L33 26L33 25ZM23 26L23 27L22 27L22 28L23 28L23 27L24 27L24 26ZM26 26L26 27L27 27L27 26ZM14 29L14 30L15 30L15 29ZM27 29L27 30L28 30L28 29ZM31 29L31 31L33 31L33 29ZM21 30L21 31L20 31L20 33L22 33L22 31L23 31L23 33L25 33L25 31L24 31L24 30ZM31 32L31 33L32 33L32 32ZM0 0L0 7L7 7L7 0ZM1 1L1 6L6 6L6 1ZM2 2L2 5L5 5L5 2ZM26 0L26 7L33 7L33 0ZM27 1L27 6L32 6L32 1ZM28 2L28 5L31 5L31 2ZM0 26L0 33L7 33L7 26ZM1 27L1 32L6 32L6 27ZM2 28L2 31L5 31L5 28Z" fill="#000000"/></g></g></svg>
