<?xml version="1.0" encoding="UTF-8"?>
<svg xmlns="http://www.w3.org/2000/svg" version="1.1" width="300" height="300" viewBox="0 0 300 300"><rect x="0" y="0" width="300" height="300" fill="#ffffff"/><g transform="scale(8.108)"><g transform="translate(0,0)"><path fill-rule="evenodd" d="M9 0L9 1L8 1L8 2L9 2L9 3L8 3L8 4L10 4L10 7L11 7L11 4L12 4L12 5L13 5L13 6L12 6L12 9L13 9L13 10L11 10L11 12L10 12L10 11L9 11L9 10L10 10L10 9L11 9L11 8L6 8L6 9L9 9L9 10L8 10L8 12L6 12L6 13L8 13L8 15L9 15L9 14L10 14L10 13L12 13L12 14L13 14L13 15L12 15L12 17L13 17L13 16L14 16L14 17L15 17L15 19L14 19L14 20L15 20L15 21L12 21L12 19L13 19L13 18L11 18L11 17L10 17L10 16L8 16L8 17L7 17L7 16L6 16L6 17L7 17L7 18L5 18L5 19L7 19L7 20L6 20L6 21L5 21L5 23L4 23L4 24L2 24L2 22L4 22L4 21L2 21L2 20L4 20L4 19L2 19L2 18L0 18L0 20L1 20L1 21L0 21L0 23L1 23L1 24L2 24L2 25L0 25L0 29L1 29L1 26L2 26L2 29L3 29L3 27L4 27L4 29L5 29L5 28L6 28L6 29L8 29L8 31L9 31L9 29L12 29L12 30L13 30L13 31L12 31L12 33L13 33L13 32L14 32L14 33L16 33L16 34L15 34L15 35L14 35L14 36L17 36L17 37L18 37L18 36L17 36L17 33L18 33L18 35L19 35L19 37L21 37L21 36L22 36L22 35L21 35L21 36L20 36L20 35L19 35L19 34L20 34L20 33L18 33L18 32L20 32L20 31L18 31L18 30L19 30L19 29L18 29L18 28L20 28L20 30L21 30L21 32L25 32L25 33L27 33L27 34L26 34L26 36L25 36L25 34L24 34L24 33L23 33L23 34L24 34L24 35L23 35L23 36L25 36L25 37L27 37L27 36L29 36L29 35L27 35L27 34L29 34L29 33L30 33L30 34L33 34L33 35L32 35L32 36L33 36L33 37L37 37L37 33L35 33L35 32L37 32L37 30L36 30L36 29L35 29L35 28L36 28L36 27L37 27L37 26L36 26L36 27L35 27L35 26L34 26L34 25L35 25L35 24L32 24L32 25L33 25L33 26L32 26L32 28L31 28L31 27L30 27L30 26L29 26L29 24L27 24L27 23L28 23L28 22L29 22L29 20L30 20L30 21L34 21L34 22L35 22L35 23L37 23L37 22L35 22L35 21L37 21L37 18L35 18L35 20L30 20L30 19L32 19L32 18L30 18L30 17L33 17L33 15L36 15L36 16L34 16L34 17L37 17L37 14L36 14L36 13L37 13L37 9L36 9L36 8L35 8L35 9L34 9L34 8L33 8L33 9L34 9L34 11L36 11L36 13L35 13L35 12L32 12L32 10L30 10L30 8L29 8L29 9L28 9L28 7L29 7L29 4L28 4L28 5L27 5L27 6L26 6L26 5L25 5L25 6L24 6L24 7L25 7L25 6L26 6L26 7L27 7L27 9L26 9L26 8L22 8L22 7L23 7L23 5L24 5L24 4L26 4L26 3L29 3L29 0L28 0L28 1L26 1L26 3L25 3L25 2L24 2L24 3L22 3L22 2L23 2L23 1L24 1L24 0L23 0L23 1L22 1L22 0L21 0L21 2L20 2L20 3L19 3L19 1L20 1L20 0L18 0L18 1L17 1L17 0L16 0L16 1L14 1L14 3L13 3L13 4L12 4L12 2L13 2L13 1L11 1L11 2L10 2L10 0ZM16 1L16 2L17 2L17 3L16 3L16 4L15 4L15 3L14 3L14 4L13 4L13 5L14 5L14 6L13 6L13 8L15 8L15 10L16 10L16 9L17 9L17 10L18 10L18 9L17 9L17 8L18 8L18 6L19 6L19 9L21 9L21 10L19 10L19 11L21 11L21 10L23 10L23 11L22 11L22 12L20 12L20 13L22 13L22 14L23 14L23 16L25 16L25 17L26 17L26 19L25 19L25 20L29 20L29 19L27 19L27 18L28 18L28 17L26 17L26 16L27 16L27 14L28 14L28 15L29 15L29 17L30 17L30 16L32 16L32 15L33 15L33 14L34 14L34 13L30 13L30 12L31 12L31 11L30 11L30 10L28 10L28 9L27 9L27 10L26 10L26 11L25 11L25 12L26 12L26 13L25 13L25 14L26 14L26 15L24 15L24 14L23 14L23 13L24 13L24 12L23 12L23 11L24 11L24 10L25 10L25 9L24 9L24 10L23 10L23 9L22 9L22 8L21 8L21 7L22 7L22 6L21 6L21 7L20 7L20 5L16 5L16 4L17 4L17 3L18 3L18 2L17 2L17 1ZM10 3L10 4L11 4L11 3ZM20 3L20 4L22 4L22 5L23 5L23 4L22 4L22 3ZM8 5L8 7L9 7L9 5ZM15 5L15 6L14 6L14 7L15 7L15 8L17 8L17 6L16 6L16 5ZM15 6L15 7L16 7L16 6ZM27 6L27 7L28 7L28 6ZM0 8L0 10L1 10L1 11L0 11L0 12L1 12L1 11L4 11L4 10L3 10L3 9L5 9L5 8ZM31 8L31 9L32 9L32 8ZM1 9L1 10L2 10L2 9ZM6 10L6 11L7 11L7 10ZM13 10L13 11L12 11L12 13L14 13L14 14L16 14L16 15L14 15L14 16L16 16L16 17L17 17L17 18L16 18L16 19L15 19L15 20L16 20L16 21L15 21L15 22L16 22L16 23L14 23L14 24L13 24L13 25L12 25L12 23L13 23L13 22L12 22L12 21L11 21L11 18L10 18L10 20L9 20L9 18L7 18L7 19L8 19L8 20L9 20L9 21L8 21L8 22L7 22L7 21L6 21L6 22L7 22L7 23L5 23L5 24L4 24L4 25L5 25L5 26L7 26L7 25L9 25L9 26L8 26L8 27L6 27L6 28L10 28L10 27L9 27L9 26L13 26L13 27L12 27L12 29L15 29L15 30L17 30L17 28L18 28L18 27L20 27L20 28L21 28L21 29L22 29L22 30L23 30L23 31L25 31L25 32L28 32L28 30L27 30L27 29L28 29L28 28L30 28L30 27L28 27L28 28L27 28L27 27L25 27L25 26L28 26L28 25L24 25L24 26L23 26L23 25L22 25L22 24L21 24L21 23L20 23L20 22L19 22L19 21L22 21L22 23L24 23L24 24L26 24L26 22L28 22L28 21L25 21L25 23L24 23L24 22L23 22L23 21L24 21L24 20L23 20L23 19L24 19L24 18L23 18L23 17L22 17L22 16L21 16L21 15L20 15L20 14L16 14L16 13L17 13L17 12L18 12L18 13L19 13L19 12L18 12L18 11L16 11L16 13L15 13L15 12L14 12L14 10ZM27 10L27 11L28 11L28 12L30 12L30 11L28 11L28 10ZM2 12L2 13L4 13L4 14L2 14L2 15L3 15L3 16L2 16L2 17L3 17L3 16L4 16L4 17L5 17L5 15L7 15L7 14L5 14L5 13L4 13L4 12ZM9 12L9 13L10 13L10 12ZM22 12L22 13L23 13L23 12ZM28 13L28 14L29 14L29 15L32 15L32 14L30 14L30 13ZM0 14L0 15L1 15L1 14ZM4 14L4 15L5 15L5 14ZM18 15L18 16L17 16L17 17L18 17L18 19L19 19L19 20L20 20L20 19L19 19L19 18L21 18L21 17L18 17L18 16L19 16L19 15ZM22 18L22 19L21 19L21 20L22 20L22 21L23 21L23 20L22 20L22 19L23 19L23 18ZM1 19L1 20L2 20L2 19ZM17 20L17 21L18 21L18 20ZM1 21L1 22L2 22L2 21ZM9 21L9 22L11 22L11 21ZM17 22L17 23L19 23L19 22ZM30 22L30 23L31 23L31 22ZM32 22L32 23L33 23L33 22ZM9 23L9 25L11 25L11 24L10 24L10 23ZM5 24L5 25L7 25L7 24ZM14 24L14 25L15 25L15 24ZM16 24L16 25L18 25L18 24ZM30 24L30 25L31 25L31 24ZM36 24L36 25L37 25L37 24ZM2 25L2 26L3 26L3 25ZM19 25L19 26L20 26L20 27L21 27L21 28L22 28L22 29L23 29L23 30L24 30L24 29L27 29L27 28L24 28L24 27L23 27L23 26L21 26L21 25ZM15 26L15 27L14 27L14 28L15 28L15 29L16 29L16 28L15 28L15 27L16 27L16 26ZM33 27L33 28L35 28L35 27ZM29 29L29 32L32 32L32 29ZM33 29L33 33L34 33L34 34L35 34L35 33L34 33L34 32L35 32L35 29ZM25 30L25 31L27 31L27 30ZM30 30L30 31L31 31L31 30ZM14 31L14 32L15 32L15 31ZM17 31L17 32L16 32L16 33L17 33L17 32L18 32L18 31ZM8 32L8 37L10 37L10 36L9 36L9 35L11 35L11 37L12 37L12 35L13 35L13 34L9 34L9 33L11 33L11 32ZM21 33L21 34L22 34L22 33ZM30 35L30 36L31 36L31 35ZM34 35L34 36L36 36L36 35ZM0 0L0 7L7 7L7 0ZM1 1L1 6L6 6L6 1ZM2 2L2 5L5 5L5 2ZM30 0L30 7L37 7L37 0ZM31 1L31 6L36 6L36 1ZM32 2L32 5L35 5L35 2ZM0 30L0 37L7 37L7 30ZM1 31L1 36L6 36L6 31ZM2 32L2 35L5 35L5 32Z" fill="#000000"/></g></g></svg>
