<?xml version="1.0" encoding="UTF-8"?>
<svg xmlns="http://www.w3.org/2000/svg" version="1.1" width="300" height="300" viewBox="0 0 300 300"><rect x="0" y="0" width="300" height="300" fill="#ffffff"/><g transform="scale(9.091)"><g transform="translate(0,0)"><path fill-rule="evenodd" d="M9 0L9 1L8 1L8 2L9 2L9 3L8 3L8 4L9 4L9 3L10 3L10 5L8 5L8 7L9 7L9 8L6 8L6 9L5 9L5 8L0 8L0 9L1 9L1 10L0 10L0 11L1 11L1 12L2 12L2 13L3 13L3 11L1 11L1 10L2 10L2 9L3 9L3 10L4 10L4 9L5 9L5 10L6 10L6 11L8 11L8 12L9 12L9 13L11 13L11 12L12 12L12 11L13 11L13 10L12 10L12 11L11 11L11 10L10 10L10 11L11 11L11 12L9 12L9 10L6 10L6 9L10 9L10 8L13 8L13 9L16 9L16 8L13 8L13 6L12 6L12 7L11 7L11 3L12 3L12 4L13 4L13 5L14 5L14 7L15 7L15 6L16 6L16 7L17 7L17 6L16 6L16 5L14 5L14 4L15 4L15 3L17 3L17 4L18 4L18 5L21 5L21 6L20 6L20 8L22 8L22 9L23 9L23 10L21 10L21 9L18 9L18 8L17 8L17 11L16 11L16 10L15 10L15 11L14 11L14 12L13 12L13 13L14 13L14 14L12 14L12 15L11 15L11 14L9 14L9 15L8 15L8 14L6 14L6 13L7 13L7 12L6 12L6 13L5 13L5 12L4 12L4 15L3 15L3 14L2 14L2 17L5 17L5 18L3 18L3 19L2 19L2 21L0 21L0 25L1 25L1 22L2 22L2 23L3 23L3 24L2 24L2 25L3 25L3 24L4 24L4 25L5 25L5 24L4 24L4 23L5 23L5 22L6 22L6 23L7 23L7 22L8 22L8 23L10 23L10 24L9 24L9 25L8 25L8 27L9 27L9 25L10 25L10 26L12 26L12 27L11 27L11 28L12 28L12 29L11 29L11 30L9 30L9 29L10 29L10 28L8 28L8 33L10 33L10 32L11 32L11 30L14 30L14 32L12 32L12 33L16 33L16 32L15 32L15 31L16 31L16 30L17 30L17 31L18 31L18 32L17 32L17 33L19 33L19 32L20 32L20 33L23 33L23 32L22 32L22 31L24 31L24 30L25 30L25 29L28 29L28 30L29 30L29 28L31 28L31 29L30 29L30 30L31 30L31 31L29 31L29 32L31 32L31 33L32 33L32 32L31 32L31 31L32 31L32 30L31 30L31 29L33 29L33 28L32 28L32 26L33 26L33 23L31 23L31 21L30 21L30 20L31 20L31 19L32 19L32 20L33 20L33 19L32 19L32 18L33 18L33 17L32 17L32 14L33 14L33 13L32 13L32 12L31 12L31 11L32 11L32 10L33 10L33 9L32 9L32 8L31 8L31 9L30 9L30 8L29 8L29 9L30 9L30 11L29 11L29 10L28 10L28 8L27 8L27 9L26 9L26 8L25 8L25 6L24 6L24 7L23 7L23 6L22 6L22 4L23 4L23 5L24 5L24 4L23 4L23 3L22 3L22 2L23 2L23 1L24 1L24 2L25 2L25 1L24 1L24 0L23 0L23 1L22 1L22 2L20 2L20 3L22 3L22 4L18 4L18 3L19 3L19 2L18 2L18 3L17 3L17 2L16 2L16 1L15 1L15 3L12 3L12 2L14 2L14 1L13 1L13 0L11 0L11 1L12 1L12 2L11 2L11 3L10 3L10 2L9 2L9 1L10 1L10 0ZM17 0L17 1L21 1L21 0ZM9 6L9 7L10 7L10 6ZM18 6L18 7L19 7L19 6ZM21 6L21 7L22 7L22 6ZM23 8L23 9L24 9L24 10L23 10L23 11L24 11L24 10L25 10L25 11L26 11L26 12L23 12L23 13L22 13L22 12L21 12L21 11L20 11L20 10L18 10L18 11L17 11L17 12L16 12L16 11L15 11L15 12L16 12L16 13L17 13L17 14L16 14L16 15L17 15L17 16L16 16L16 17L17 17L17 16L18 16L18 17L19 17L19 16L20 16L20 17L22 17L22 18L17 18L17 19L14 19L14 17L13 17L13 16L14 16L14 15L15 15L15 14L14 14L14 15L12 15L12 16L11 16L11 15L9 15L9 17L8 17L8 16L7 16L7 15L6 15L6 16L5 16L5 17L6 17L6 18L8 18L8 19L9 19L9 20L10 20L10 23L12 23L12 22L11 22L11 21L12 21L12 20L11 20L11 19L12 19L12 18L13 18L13 20L18 20L18 21L17 21L17 22L16 22L16 23L13 23L13 24L12 24L12 25L13 25L13 28L14 28L14 27L15 27L15 28L16 28L16 27L17 27L17 28L18 28L18 27L17 27L17 26L18 26L18 25L17 25L17 26L16 26L16 27L15 27L15 25L13 25L13 24L16 24L16 23L17 23L17 24L20 24L20 26L19 26L19 27L20 27L20 28L19 28L19 29L18 29L18 30L19 30L19 31L22 31L22 30L21 30L21 27L22 27L22 28L23 28L23 30L24 30L24 27L23 27L23 26L24 26L24 24L23 24L23 23L24 23L24 22L25 22L25 24L26 24L26 23L27 23L27 22L25 22L25 21L27 21L27 18L25 18L25 17L28 17L28 18L29 18L29 19L28 19L28 20L29 20L29 19L31 19L31 18L32 18L32 17L31 17L31 16L29 16L29 17L28 17L28 16L26 16L26 15L27 15L27 14L26 14L26 15L25 15L25 13L27 13L27 11L26 11L26 10L25 10L25 8ZM18 11L18 12L17 12L17 13L18 13L18 15L19 15L19 14L20 14L20 16L23 16L23 18L24 18L24 19L23 19L23 20L24 20L24 21L22 21L22 22L24 22L24 21L25 21L25 20L26 20L26 19L25 19L25 18L24 18L24 17L25 17L25 15L24 15L24 16L23 16L23 14L24 14L24 13L23 13L23 14L22 14L22 13L20 13L20 12L19 12L19 11ZM28 11L28 12L29 12L29 11ZM18 12L18 13L19 13L19 12ZM0 13L0 14L1 14L1 13ZM28 13L28 14L29 14L29 13ZM30 13L30 15L31 15L31 14L32 14L32 13ZM6 16L6 17L7 17L7 16ZM9 17L9 19L10 19L10 18L11 18L11 17ZM29 17L29 18L30 18L30 17ZM0 19L0 20L1 20L1 19ZM4 19L4 20L3 20L3 23L4 23L4 22L5 22L5 21L6 21L6 22L7 22L7 21L8 21L8 22L9 22L9 21L8 21L8 20L7 20L7 19L6 19L6 20L5 20L5 19ZM19 19L19 20L20 20L20 19ZM21 19L21 20L22 20L22 19ZM24 19L24 20L25 20L25 19ZM6 20L6 21L7 21L7 20ZM14 21L14 22L15 22L15 21ZM18 21L18 22L20 22L20 21ZM28 21L28 22L29 22L29 21ZM32 21L32 22L33 22L33 21ZM20 23L20 24L22 24L22 23ZM28 23L28 24L29 24L29 25L30 25L30 26L31 26L31 25L32 25L32 24L29 24L29 23ZM6 24L6 25L7 25L7 24ZM21 25L21 26L22 26L22 25ZM25 25L25 28L28 28L28 25ZM26 26L26 27L27 27L27 26ZM14 29L14 30L15 30L15 29ZM19 29L19 30L20 30L20 29ZM26 30L26 31L27 31L27 30ZM9 31L9 32L10 32L10 31ZM24 32L24 33L25 33L25 32ZM26 32L26 33L27 33L27 32ZM0 0L0 7L7 7L7 0ZM1 1L1 6L6 6L6 1ZM2 2L2 5L5 5L5 2ZM26 0L26 7L33 7L33 0ZM27 1L27 6L32 6L32 1ZM28 2L28 5L31 5L31 2ZM0 26L0 33L7 33L7 26ZM1 27L1 32L6 32L6 27ZM2 28L2 31L5 31L5 28Z" fill="#000000"/></g></g></svg>
