<?xml version="1.0" encoding="UTF-8"?>
<svg xmlns="http://www.w3.org/2000/svg" version="1.1" width="300" height="300" viewBox="0 0 300 300"><rect x="0" y="0" width="300" height="300" fill="#ffffff"/><g transform="scale(9.091)"><g transform="translate(0,0)"><path fill-rule="evenodd" d="M8 0L8 2L10 2L10 4L8 4L8 9L9 9L9 10L11 10L11 11L12 11L12 12L13 12L13 11L14 11L14 10L15 10L15 11L16 11L16 13L15 13L15 18L12 18L12 17L13 17L13 16L12 16L12 15L13 15L13 14L14 14L14 13L11 13L11 14L10 14L10 16L9 16L9 13L10 13L10 11L9 11L9 13L8 13L8 15L7 15L7 14L6 14L6 13L7 13L7 12L8 12L8 11L7 11L7 10L5 10L5 9L7 9L7 8L5 8L5 9L4 9L4 10L3 10L3 8L0 8L0 10L1 10L1 11L0 11L0 13L2 13L2 11L5 11L5 13L4 13L4 14L1 14L1 15L0 15L0 20L1 20L1 21L4 21L4 22L3 22L3 23L2 23L2 22L0 22L0 23L2 23L2 24L0 24L0 25L2 25L2 24L3 24L3 25L5 25L5 24L6 24L6 25L7 25L7 24L8 24L8 26L9 26L9 27L8 27L8 28L9 28L9 27L11 27L11 28L10 28L10 29L9 29L9 30L8 30L8 33L9 33L9 32L10 32L10 33L11 33L11 32L12 32L12 31L13 31L13 30L12 30L12 29L13 29L13 28L12 28L12 27L14 27L14 29L15 29L15 30L14 30L14 31L15 31L15 32L14 32L14 33L17 33L17 32L16 32L16 31L17 31L17 30L18 30L18 31L20 31L20 32L18 32L18 33L20 33L20 32L21 32L21 30L20 30L20 29L21 29L21 28L20 28L20 27L21 27L21 26L20 26L20 25L21 25L21 22L22 22L22 23L23 23L23 24L22 24L22 25L24 25L24 28L23 28L23 29L22 29L22 31L23 31L23 29L27 29L27 30L28 30L28 31L27 31L27 32L28 32L28 33L30 33L30 30L29 30L29 29L30 29L30 27L31 27L31 29L32 29L32 27L33 27L33 25L32 25L32 24L33 24L33 16L32 16L32 15L33 15L33 12L32 12L32 15L31 15L31 16L32 16L32 20L31 20L31 21L32 21L32 22L30 22L30 21L29 21L29 22L30 22L30 23L29 23L29 24L24 24L24 23L26 23L26 22L27 22L27 23L28 23L28 22L27 22L27 21L28 21L28 20L27 20L27 19L28 19L28 18L27 18L27 16L24 16L24 17L23 17L23 15L24 15L24 14L25 14L25 15L26 15L26 14L27 14L27 15L28 15L28 16L29 16L29 20L30 20L30 18L31 18L31 17L30 17L30 15L28 15L28 14L27 14L27 13L28 13L28 12L26 12L26 10L27 10L27 11L28 11L28 10L27 10L27 9L29 9L29 8L25 8L25 9L24 9L24 7L25 7L25 5L24 5L24 7L23 7L23 6L22 6L22 8L23 8L23 11L22 11L22 9L21 9L21 6L20 6L20 8L19 8L19 3L20 3L20 2L19 2L19 0L18 0L18 2L17 2L17 5L18 5L18 8L19 8L19 11L20 11L20 10L21 10L21 11L22 11L22 12L23 12L23 15L22 15L22 14L21 14L21 12L20 12L20 13L19 13L19 14L16 14L16 13L17 13L17 10L18 10L18 9L17 9L17 8L16 8L16 7L17 7L17 6L16 6L16 7L15 7L15 6L14 6L14 4L16 4L16 2L15 2L15 3L14 3L14 2L13 2L13 1L15 1L15 0L11 0L11 1L9 1L9 0ZM22 0L22 1L21 1L21 5L23 5L23 3L24 3L24 4L25 4L25 3L24 3L24 2L23 2L23 0ZM11 1L11 2L12 2L12 1ZM11 3L11 4L12 4L12 6L11 6L11 5L9 5L9 8L10 8L10 6L11 6L11 7L12 7L12 6L13 6L13 9L12 9L12 8L11 8L11 10L12 10L12 11L13 11L13 10L14 10L14 9L15 9L15 8L14 8L14 6L13 6L13 3ZM31 8L31 10L29 10L29 12L30 12L30 13L29 13L29 14L31 14L31 12L30 12L30 11L31 11L31 10L32 10L32 11L33 11L33 8ZM16 9L16 10L17 10L17 9ZM6 11L6 12L7 12L7 11ZM24 11L24 13L25 13L25 11ZM20 14L20 15L19 15L19 16L18 16L18 15L16 15L16 16L17 16L17 17L16 17L16 18L17 18L17 17L18 17L18 19L16 19L16 21L17 21L17 22L18 22L18 23L16 23L16 25L17 25L17 28L16 28L16 27L15 27L15 24L14 24L14 23L15 23L15 20L14 20L14 19L12 19L12 21L14 21L14 23L13 23L13 24L12 24L12 23L10 23L10 24L9 24L9 26L10 26L10 25L11 25L11 24L12 24L12 25L13 25L13 26L14 26L14 27L15 27L15 28L16 28L16 29L18 29L18 28L19 28L19 27L18 27L18 26L19 26L19 25L20 25L20 23L19 23L19 20L18 20L18 19L19 19L19 17L20 17L20 15L21 15L21 19L20 19L20 20L21 20L21 21L20 21L20 22L21 22L21 21L22 21L22 20L23 20L23 19L22 19L22 18L23 18L23 17L22 17L22 15L21 15L21 14ZM6 15L6 16L1 16L1 18L2 18L2 19L1 19L1 20L3 20L3 19L5 19L5 20L4 20L4 21L5 21L5 20L7 20L7 21L6 21L6 22L5 22L5 23L6 23L6 24L7 24L7 23L9 23L9 22L11 22L11 21L10 21L10 20L11 20L11 18L10 18L10 17L11 17L11 16L10 16L10 17L9 17L9 16L8 16L8 17L6 17L6 16L7 16L7 15ZM2 17L2 18L4 18L4 17ZM5 17L5 18L6 18L6 19L7 19L7 18L6 18L6 17ZM8 17L8 20L10 20L10 18L9 18L9 17ZM25 18L25 19L26 19L26 18ZM6 22L6 23L7 23L7 22ZM18 23L18 25L19 25L19 23ZM30 23L30 25L31 25L31 23ZM25 25L25 28L28 28L28 25ZM22 26L22 27L23 27L23 26ZM26 26L26 27L27 27L27 26ZM29 26L29 27L30 27L30 26ZM31 26L31 27L32 27L32 26ZM9 30L9 31L10 31L10 30ZM25 30L25 31L24 31L24 32L23 32L23 33L26 33L26 32L25 32L25 31L26 31L26 30ZM32 30L32 31L33 31L33 30ZM28 31L28 32L29 32L29 31ZM32 32L32 33L33 33L33 32ZM0 0L0 7L7 7L7 0ZM1 1L1 6L6 6L6 1ZM2 2L2 5L5 5L5 2ZM26 0L26 7L33 7L33 0ZM27 1L27 6L32 6L32 1ZM28 2L28 5L31 5L31 2ZM0 26L0 33L7 33L7 26ZM1 27L1 32L6 32L6 27ZM2 28L2 31L5 31L5 28Z" fill="#000000"/></g></g></svg>
