<?xml version="1.0" encoding="UTF-8"?>
<svg xmlns="http://www.w3.org/2000/svg" version="1.1" width="300" height="300" viewBox="0 0 300 300"><rect x="0" y="0" width="300" height="300" fill="#ffffff"/><g transform="scale(9.091)"><g transform="translate(0,0)"><path fill-rule="evenodd" d="M9 0L9 1L8 1L8 3L9 3L9 4L8 4L8 8L6 8L6 9L7 9L7 10L6 10L6 11L5 11L5 9L4 9L4 8L3 8L3 9L2 9L2 8L0 8L0 9L2 9L2 10L1 10L1 11L2 11L2 12L1 12L1 14L0 14L0 16L1 16L1 17L0 17L0 20L1 20L1 22L0 22L0 23L1 23L1 24L0 24L0 25L1 25L1 24L2 24L2 23L3 23L3 22L4 22L4 23L5 23L5 24L3 24L3 25L5 25L5 24L6 24L6 25L8 25L8 27L9 27L9 26L10 26L10 27L13 27L13 28L15 28L15 26L14 26L14 23L15 23L15 22L14 22L14 21L15 21L15 20L16 20L16 19L17 19L17 20L19 20L19 21L20 21L20 20L21 20L21 21L22 21L22 22L19 22L19 23L18 23L18 24L17 24L17 25L16 25L16 27L17 27L17 29L20 29L20 33L25 33L25 31L24 31L24 30L23 30L23 29L22 29L22 27L23 27L23 28L24 28L24 29L25 29L25 30L27 30L27 31L28 31L28 32L26 32L26 33L30 33L30 32L29 32L29 24L30 24L30 23L33 23L33 21L31 21L31 22L28 22L28 21L26 21L26 22L25 22L25 17L27 17L27 18L26 18L26 20L29 20L29 19L27 19L27 18L28 18L28 17L29 17L29 18L31 18L31 19L32 19L32 20L33 20L33 18L32 18L32 17L33 17L33 16L32 16L32 17L29 17L29 15L27 15L27 16L24 16L24 14L29 14L29 13L30 13L30 14L31 14L31 15L32 15L32 14L33 14L33 9L32 9L32 8L30 8L30 9L29 9L29 8L26 8L26 10L25 10L25 9L24 9L24 8L23 8L23 9L24 9L24 11L23 11L23 10L22 10L22 11L21 11L21 12L20 12L20 10L21 10L21 9L22 9L22 7L23 7L23 6L22 6L22 5L21 5L21 6L20 6L20 5L19 5L19 4L20 4L20 3L21 3L21 2L20 2L20 3L19 3L19 1L20 1L20 0L18 0L18 1L16 1L16 0L12 0L12 1L11 1L11 0ZM21 0L21 1L23 1L23 2L22 2L22 4L23 4L23 5L24 5L24 7L25 7L25 5L24 5L24 4L25 4L25 3L24 3L24 0ZM9 1L9 2L11 2L11 1ZM13 1L13 2L12 2L12 3L11 3L11 4L9 4L9 5L10 5L10 6L9 6L9 7L10 7L10 8L8 8L8 9L9 9L9 10L10 10L10 8L14 8L14 6L13 6L13 4L14 4L14 3L15 3L15 2L14 2L14 1ZM12 3L12 4L11 4L11 5L12 5L12 4L13 4L13 3ZM16 3L16 6L15 6L15 7L16 7L16 8L17 8L17 9L15 9L15 11L14 11L14 10L13 10L13 9L11 9L11 11L9 11L9 12L8 12L8 11L6 11L6 12L5 12L5 13L6 13L6 14L7 14L7 15L4 15L4 16L3 16L3 14L4 14L4 12L2 12L2 13L3 13L3 14L1 14L1 15L2 15L2 17L1 17L1 18L2 18L2 19L3 19L3 20L2 20L2 22L3 22L3 21L5 21L5 20L4 20L4 19L6 19L6 20L8 20L8 21L6 21L6 22L7 22L7 23L6 23L6 24L7 24L7 23L12 23L12 24L8 24L8 25L10 25L10 26L13 26L13 27L14 27L14 26L13 26L13 25L12 25L12 24L13 24L13 23L12 23L12 22L13 22L13 20L15 20L15 19L16 19L16 18L17 18L17 19L18 19L18 18L19 18L19 20L20 20L20 17L19 17L19 16L21 16L21 15L23 15L23 14L24 14L24 13L26 13L26 11L24 11L24 12L22 12L22 13L23 13L23 14L19 14L19 12L18 12L18 11L19 11L19 10L20 10L20 9L21 9L21 7L22 7L22 6L21 6L21 7L20 7L20 6L19 6L19 7L18 7L18 5L17 5L17 4L18 4L18 3ZM10 6L10 7L11 7L11 6ZM12 6L12 7L13 7L13 6ZM16 6L16 7L17 7L17 8L18 8L18 7L17 7L17 6ZM19 8L19 9L20 9L20 8ZM3 9L3 10L4 10L4 9ZM17 9L17 10L18 10L18 9ZM28 9L28 10L27 10L27 11L28 11L28 12L27 12L27 13L29 13L29 11L30 11L30 12L31 12L31 11L32 11L32 9L30 9L30 10L29 10L29 9ZM28 10L28 11L29 11L29 10ZM30 10L30 11L31 11L31 10ZM12 11L12 12L13 12L13 13L14 13L14 15L13 15L13 14L11 14L11 13L10 13L10 14L11 14L11 16L14 16L14 15L15 15L15 16L16 16L16 17L18 17L18 15L15 15L15 13L14 13L14 11ZM6 12L6 13L7 13L7 14L9 14L9 13L8 13L8 12ZM16 12L16 14L17 14L17 13L18 13L18 12ZM31 13L31 14L32 14L32 13ZM4 16L4 17L2 17L2 18L3 18L3 19L4 19L4 17L5 17L5 16ZM6 16L6 17L7 17L7 18L6 18L6 19L9 19L9 18L10 18L10 19L11 19L11 18L12 18L12 17L10 17L10 16L8 16L8 17L7 17L7 16ZM22 16L22 18L23 18L23 20L24 20L24 18L23 18L23 16ZM14 17L14 18L13 18L13 19L14 19L14 18L15 18L15 17ZM9 20L9 21L10 21L10 20ZM11 20L11 21L12 21L12 20ZM23 21L23 22L22 22L22 24L23 24L23 25L24 25L24 24L27 24L27 23L28 23L28 24L29 24L29 23L28 23L28 22L27 22L27 23L24 23L24 21ZM16 22L16 23L17 23L17 22ZM19 23L19 24L18 24L18 27L20 27L20 26L21 26L21 25L20 25L20 23ZM23 23L23 24L24 24L24 23ZM19 25L19 26L20 26L20 25ZM25 25L25 28L28 28L28 25ZM30 25L30 27L32 27L32 28L31 28L31 31L33 31L33 29L32 29L32 28L33 28L33 27L32 27L32 26L33 26L33 25ZM23 26L23 27L24 27L24 26ZM26 26L26 27L27 27L27 26ZM11 28L11 30L12 30L12 31L13 31L13 30L15 30L15 29L13 29L13 30L12 30L12 28ZM20 28L20 29L21 29L21 28ZM8 29L8 30L10 30L10 29ZM27 29L27 30L28 30L28 29ZM16 30L16 32L15 32L15 31L14 31L14 32L9 32L9 31L8 31L8 33L14 33L14 32L15 32L15 33L16 33L16 32L18 32L18 33L19 33L19 32L18 32L18 31L19 31L19 30ZM22 31L22 32L23 32L23 31ZM31 32L31 33L32 33L32 32ZM0 0L0 7L7 7L7 0ZM1 1L1 6L6 6L6 1ZM2 2L2 5L5 5L5 2ZM26 0L26 7L33 7L33 0ZM27 1L27 6L32 6L32 1ZM28 2L28 5L31 5L31 2ZM0 26L0 33L7 33L7 26ZM1 27L1 32L6 32L6 27ZM2 28L2 31L5 31L5 28Z" fill="#000000"/></g></g></svg>
