<?xml version="1.0" encoding="UTF-8"?>
<svg xmlns="http://www.w3.org/2000/svg" version="1.1" width="300" height="300" viewBox="0 0 300 300"><rect x="0" y="0" width="300" height="300" fill="#ffffff"/><g transform="scale(8.108)"><g transform="translate(0,0)"><path fill-rule="evenodd" d="M8 0L8 4L10 4L10 3L11 3L11 4L12 4L12 2L11 2L11 0ZM12 0L12 1L14 1L14 2L15 2L15 1L16 1L16 2L17 2L17 3L13 3L13 4L15 4L15 5L19 5L19 6L18 6L18 7L17 7L17 6L16 6L16 7L17 7L17 9L15 9L15 6L14 6L14 5L11 5L11 6L10 6L10 7L9 7L9 5L8 5L8 7L9 7L9 8L10 8L10 7L11 7L11 6L12 6L12 8L11 8L11 9L7 9L7 8L4 8L4 9L3 9L3 10L2 10L2 11L3 11L3 12L2 12L2 13L4 13L4 14L1 14L1 15L0 15L0 17L1 17L1 19L0 19L0 20L1 20L1 19L3 19L3 20L2 20L2 22L3 22L3 20L4 20L4 23L5 23L5 24L4 24L4 25L5 25L5 26L3 26L3 24L2 24L2 26L3 26L3 27L2 27L2 28L0 28L0 29L2 29L2 28L3 28L3 29L4 29L4 28L5 28L5 26L6 26L6 27L9 27L9 28L8 28L8 30L10 30L10 32L9 32L9 31L8 31L8 33L10 33L10 32L11 32L11 33L12 33L12 34L9 34L9 35L8 35L8 37L9 37L9 36L10 36L10 37L11 37L11 36L12 36L12 37L14 37L14 35L15 35L15 37L16 37L16 34L17 34L17 37L18 37L18 36L19 36L19 37L22 37L22 34L21 34L21 33L23 33L23 35L24 35L24 37L25 37L25 35L24 35L24 33L25 33L25 34L26 34L26 36L27 36L27 37L28 37L28 35L29 35L29 36L30 36L30 35L31 35L31 33L35 33L35 34L37 34L37 33L35 33L35 32L36 32L36 31L35 31L35 30L36 30L36 29L35 29L35 27L36 27L36 28L37 28L37 27L36 27L36 26L35 26L35 27L34 27L34 26L33 26L33 25L32 25L32 24L31 24L31 23L30 23L30 22L29 22L29 19L30 19L30 21L31 21L31 22L32 22L32 23L33 23L33 22L34 22L34 25L35 25L35 24L36 24L36 25L37 25L37 23L35 23L35 21L37 21L37 20L35 20L35 18L34 18L34 17L37 17L37 16L36 16L36 15L34 15L34 14L36 14L36 13L37 13L37 12L36 12L36 11L34 11L34 13L31 13L31 11L33 11L33 10L37 10L37 8L33 8L33 9L32 9L32 8L31 8L31 11L30 11L30 9L27 9L27 8L29 8L29 3L28 3L28 2L29 2L29 0L25 0L25 2L23 2L23 3L25 3L25 5L24 5L24 4L23 4L23 5L22 5L22 7L21 7L21 5L19 5L19 4L17 4L17 3L18 3L18 2L19 2L19 3L22 3L22 2L20 2L20 1L22 1L22 0L20 0L20 1L19 1L19 0L18 0L18 1L16 1L16 0ZM23 0L23 1L24 1L24 0ZM26 1L26 2L25 2L25 3L26 3L26 4L28 4L28 3L26 3L26 2L28 2L28 1ZM9 2L9 3L10 3L10 2ZM23 5L23 9L19 9L19 10L18 10L18 9L17 9L17 10L16 10L16 11L14 11L14 13L17 13L17 11L18 11L18 13L19 13L19 15L18 15L18 17L17 17L17 15L15 15L15 14L13 14L13 13L12 13L12 12L13 12L13 11L12 11L12 12L10 12L10 11L9 11L9 12L8 12L8 10L7 10L7 9L6 9L6 10L5 10L5 9L4 9L4 10L5 10L5 11L4 11L4 13L6 13L6 14L5 14L5 17L3 17L3 16L4 16L4 15L1 15L1 16L2 16L2 18L3 18L3 19L4 19L4 20L7 20L7 21L6 21L6 22L5 22L5 23L6 23L6 24L5 24L5 25L6 25L6 26L7 26L7 25L6 25L6 24L7 24L7 23L9 23L9 22L8 22L8 21L11 21L11 24L10 24L10 25L9 25L9 24L8 24L8 26L10 26L10 27L11 27L11 26L12 26L12 25L13 25L13 26L15 26L15 25L13 25L13 24L14 24L14 23L15 23L15 24L16 24L16 23L15 23L15 22L13 22L13 21L12 21L12 20L13 20L13 19L12 19L12 20L11 20L11 18L12 18L12 17L13 17L13 18L15 18L15 17L17 17L17 18L18 18L18 19L19 19L19 20L18 20L18 21L17 21L17 20L16 20L16 19L14 19L14 21L16 21L16 22L17 22L17 23L19 23L19 24L18 24L18 25L16 25L16 26L19 26L19 27L18 27L18 29L19 29L19 31L18 31L18 30L17 30L17 28L16 28L16 27L14 27L14 29L16 29L16 32L15 32L15 33L13 33L13 32L14 32L14 31L15 31L15 30L13 30L13 29L12 29L12 28L13 28L13 27L12 27L12 28L11 28L11 29L10 29L10 30L11 30L11 32L12 32L12 33L13 33L13 34L15 34L15 33L17 33L17 34L18 34L18 35L20 35L20 36L21 36L21 34L20 34L20 33L21 33L21 30L20 30L20 29L19 29L19 27L20 27L20 28L21 28L21 26L23 26L23 25L24 25L24 26L25 26L25 25L26 25L26 27L25 27L25 29L24 29L24 27L22 27L22 28L23 28L23 29L22 29L22 32L23 32L23 33L24 33L24 31L25 31L25 33L26 33L26 34L27 34L27 35L28 35L28 29L26 29L26 27L27 27L27 25L28 25L28 23L27 23L27 21L28 21L28 19L29 19L29 18L28 18L28 19L27 19L27 17L28 17L28 16L29 16L29 17L30 17L30 19L31 19L31 21L34 21L34 18L33 18L33 19L31 19L31 17L33 17L33 16L34 16L34 15L33 15L33 14L32 14L32 15L31 15L31 13L30 13L30 12L29 12L29 11L27 11L27 9L26 9L26 8L27 8L27 7L28 7L28 5L27 5L27 7L26 7L26 5L25 5L25 7L24 7L24 5ZM13 6L13 8L12 8L12 9L11 9L11 10L12 10L12 9L13 9L13 10L14 10L14 9L13 9L13 8L14 8L14 6ZM19 6L19 7L18 7L18 8L19 8L19 7L20 7L20 6ZM0 8L0 9L2 9L2 8ZM24 8L24 9L23 9L23 11L22 11L22 10L20 10L20 12L19 12L19 13L20 13L20 16L19 16L19 17L18 17L18 18L19 18L19 17L20 17L20 18L21 18L21 19L20 19L20 20L19 20L19 21L20 21L20 24L19 24L19 25L20 25L20 26L21 26L21 25L23 25L23 23L24 23L24 25L25 25L25 23L26 23L26 21L27 21L27 19L26 19L26 21L25 21L25 18L26 18L26 17L27 17L27 16L28 16L28 15L30 15L30 13L28 13L28 12L26 12L26 13L25 13L25 11L26 11L26 10L25 10L25 8ZM0 10L0 12L1 12L1 10ZM6 10L6 11L5 11L5 12L6 12L6 13L7 13L7 14L6 14L6 15L8 15L8 16L9 16L9 13L10 13L10 12L9 12L9 13L7 13L7 12L6 12L6 11L7 11L7 10ZM24 10L24 11L25 11L25 10ZM20 12L20 13L21 13L21 12ZM35 12L35 13L36 13L36 12ZM22 13L22 15L23 15L23 17L21 17L21 16L20 16L20 17L21 17L21 18L22 18L22 20L23 20L23 21L22 21L22 22L21 22L21 23L23 23L23 21L24 21L24 23L25 23L25 21L24 21L24 19L23 19L23 17L24 17L24 16L25 16L25 17L26 17L26 16L27 16L27 14L26 14L26 15L25 15L25 14L24 14L24 15L23 15L23 13ZM12 15L12 16L11 16L11 17L12 17L12 16L13 16L13 17L15 17L15 15L14 15L14 16L13 16L13 15ZM6 16L6 17L7 17L7 16ZM30 16L30 17L31 17L31 16ZM8 17L8 18L4 18L4 19L7 19L7 20L10 20L10 19L8 19L8 18L9 18L9 17ZM20 20L20 21L21 21L21 20ZM6 22L6 23L7 23L7 22ZM12 23L12 24L11 24L11 25L12 25L12 24L13 24L13 23ZM20 24L20 25L21 25L21 24ZM26 24L26 25L27 25L27 24ZM29 24L29 26L28 26L28 27L30 27L30 28L32 28L32 26L31 26L31 25L30 25L30 24ZM0 25L0 26L1 26L1 25ZM30 26L30 27L31 27L31 26ZM33 27L33 29L34 29L34 30L33 30L33 32L34 32L34 30L35 30L35 29L34 29L34 27ZM6 28L6 29L7 29L7 28ZM23 29L23 31L24 31L24 29ZM25 29L25 31L26 31L26 33L27 33L27 31L26 31L26 29ZM29 29L29 32L32 32L32 29ZM30 30L30 31L31 31L31 30ZM12 31L12 32L13 32L13 31ZM17 31L17 33L18 33L18 34L19 34L19 33L18 33L18 31ZM19 31L19 32L20 32L20 31ZM29 33L29 34L30 34L30 33ZM33 34L33 35L32 35L32 36L31 36L31 37L33 37L33 36L34 36L34 37L37 37L37 36L36 36L36 35L34 35L34 34ZM10 35L10 36L11 36L11 35ZM12 35L12 36L13 36L13 35ZM0 0L0 7L7 7L7 0ZM1 1L1 6L6 6L6 1ZM2 2L2 5L5 5L5 2ZM30 0L30 7L37 7L37 0ZM31 1L31 6L36 6L36 1ZM32 2L32 5L35 5L35 2ZM0 30L0 37L7 37L7 30ZM1 31L1 36L6 36L6 31ZM2 32L2 35L5 35L5 32Z" fill="#000000"/></g></g></svg>
